<?xml version="1.0" encoding="utf-8"?>
<!-- Generator: Adobe Illustrator 27.1.1, SVG Export Plug-In . SVG Version: 6.00 Build 0)  -->
<svg version="1.1" id="Calque_1" xmlns="http://www.w3.org/2000/svg" xmlns:xlink="http://www.w3.org/1999/xlink" x="0px" y="0px"
	 viewBox="0 0 311.73 65" style="enable-background:new 0 0 311.73 65;" xml:space="preserve">
<style type="text/css">
	.st0{fill:none;}
	.st1{fill:#E36414;}
	.st2{fill:#EE7429;}
</style>
<rect y="0.15" class="st0" width="311.73" height="64.83"/>
<path id="Tracé_28" class="st1" d="M114.13,48.14c-7.07,4.53-16.13,4.53-23.2,0c-3.71-2.29-6.7-5.58-8.62-9.5
	c-2.02-3.95-3.08-8.33-3.07-12.77c0-4.49,1.07-8.91,3.12-12.9c1.91-3.94,4.93-7.25,8.69-9.5c3.45-2.14,7.42-3.28,11.48-3.32h18.5
	l2.24,9.32h-20.83c-2.45,0.03-4.83,0.76-6.87,2.12c-2.28,1.48-4.09,3.57-5.22,6.03c-2.5,5.16-2.52,11.18-0.05,16.35
	c1.13,2.46,2.93,4.55,5.2,6.03c4.19,2.9,9.74,2.89,13.93-0.02c1.79-1.14,3.29-2.69,4.38-4.52l8.19,4.57
	C120.1,43.36,117.39,46.15,114.13,48.14"/>
<path id="Tracé_29" class="st1" d="M163.39,20.48l-5.75-3.33c-0.4,2.8-0.84,5.36-1.32,7.74c-1.07-2.22-2.73-4.11-4.8-5.45
	c-4.12-2.94-9.64-2.94-13.76,0c-2.32,1.57-4.13,3.77-5.23,6.34c-2.5,5.43-2.51,11.68-0.03,17.11c1.1,2.56,2.9,4.75,5.19,6.34
	c4.16,3.02,9.8,3.02,13.96,0c1.69-0.82,3.26-2.53,4.73-5.1c0.5,2.31,0.98,4.79,1.43,7.49l5.53-2.95c-0.79-4.73-1.85-9.41-3.16-14.02
	C161.52,30,162.59,25.26,163.39,20.48 M144.66,45.27c-1.43-0.03-2.8-0.54-3.9-1.44c-1.32-1.05-2.33-2.44-2.92-4.02
	c-1.39-3.5-1.39-7.4,0.01-10.9c0.59-1.58,1.61-2.98,2.93-4.02c1.1-0.89,2.46-1.38,3.87-1.41c3.57,0.26,6.62,4.01,9.14,11.24
	C151.37,41.84,148.32,45.36,144.66,45.27"/>
<path class="st2" d="M185.41,53.94l-1.04-0.25c-1.53-0.36-3.01-0.92-4.4-1.67c-2.59-1.33-4.56-3.56-5.57-6.29
	c-1.05-3.18-1.41-6.45-1.09-9.74l-0.1-35.4l8.43,0.04l-0.1,35.38c0.07,2.13,0.32,4.31,0.73,6.44c0.23,0.92,0.94,1.73,1.88,2.1
	c0.58,0.26,1.16,0.46,1.74,0.61l0.88,0.23L185.41,53.94z M175.22,2.6l0.09,33.49l0,0.05c-0.3,3.04,0.03,6.04,0.98,8.94
	c0.82,2.23,2.46,4.07,4.6,5.17l0.02,0.01c0.92,0.5,1.88,0.9,2.87,1.21l0.74-4.62c-0.39-0.13-0.77-0.28-1.15-0.45
	c-1.49-0.6-2.64-1.91-3.05-3.51c-0.44-2.29-0.7-4.57-0.77-6.84l0.09-33.42L175.22,2.6z"/>
<path class="st2" d="M205.46,53.94l-1.04-0.24c-1.54-0.36-3.02-0.92-4.41-1.67c-2.59-1.33-4.56-3.56-5.57-6.29
	c-1.05-3.18-1.41-6.45-1.09-9.74l-0.1-19.94l8.44,0.04l-0.09,19.92c0.07,2.13,0.32,4.31,0.73,6.44c0.23,0.92,0.94,1.73,1.88,2.1
	c0.58,0.26,1.16,0.46,1.74,0.61l0.88,0.23L205.46,53.94z M195.26,18.07l0.09,18.02l0,0.05c-0.3,3.03,0.03,6.04,0.98,8.94
	c0.82,2.23,2.46,4.07,4.6,5.17l0.02,0.01c0.92,0.5,1.88,0.9,2.88,1.21l0.74-4.62c-0.39-0.13-0.77-0.28-1.15-0.45
	c-1.49-0.6-2.64-1.91-3.05-3.51c-0.44-2.29-0.7-4.57-0.77-6.84l0.08-17.95L195.26,18.07z"/>
<path class="st2" d="M224.83,65.47c-0.83,0-1.66-0.03-2.48-0.08l-0.66-0.04l-2.86-8.07l1.38-0.03c0.76-0.02,1.55,0,2.35,0.01
	c1.1,0.01,2.24,0.03,3.33-0.03l0.02,0c1.07-0.04,2.13-0.21,3.16-0.49c1.13-0.29,2.1-0.97,2.76-1.91c0.3-0.4,0.37-0.89,0.2-1.33
	c-0.16-0.2-0.37-0.37-0.6-0.49c-1.37-0.79-2.83-1.16-4.37-1.56c-0.73-0.19-1.46-0.38-2.18-0.61c-2.21-0.68-4.34-1.63-6.33-2.82
	c-2.27-1.38-4.17-3.32-5.51-5.6c-0.22-0.37-0.42-0.75-0.62-1.15c-1.29-2.4-2.03-5.14-2.14-7.89c0.09-2.86,0.85-5.62,2.19-8.07
	c0.55-1.05,1.2-2.07,1.93-3.02c1.16-1.44,2.52-2.68,4.04-3.69c1.86-1.31,4.57-2.09,8.25-2.35l13.22,0l1.97,8.21h-15.15
	c-1.43,0.01-2.82,0.44-4.01,1.23c-1.37,0.89-2.46,2.14-3.14,3.62c-0.68,1.27-1.08,2.64-1.16,4.01c0.08,1.36,0.47,2.72,1.11,3.93
	c0.7,1.52,1.77,2.75,3.12,3.63c0.12,0.08,0.18,0.13,0.24,0.16c2,1.21,4.34,1.92,6.6,2.61c0.98,0.3,2,0.61,2.97,0.95
	c2.28,0.67,4.32,2.03,5.83,3.93c1.13,1.72,1.69,3.63,1.68,5.6c0.08,1.91-0.39,3.85-1.36,5.56c-1.26,1.96-3.03,3.42-5.15,4.26
	c-1.98,0.86-4.11,1.35-6.31,1.44C226.39,65.45,225.61,65.47,224.83,65.47z M223.13,63.43c1.31,0.06,2.62,0.05,3.92-0.03
	c1.96-0.08,3.86-0.51,5.64-1.29c1.76-0.7,3.2-1.88,4.21-3.44c0.75-1.34,1.13-2.91,1.07-4.5c0.01-1.62-0.43-3.14-1.3-4.46
	c-1.2-1.5-2.89-2.64-4.83-3.2c-0.99-0.35-1.98-0.65-2.94-0.94c-2.38-0.72-4.84-1.47-7.04-2.81c-0.12-0.07-0.24-0.15-0.36-0.24
	c-1.62-1.04-2.94-2.57-3.77-4.38c-0.76-1.43-1.22-3.09-1.32-4.76l0-0.06l0-0.06c0.1-1.68,0.57-3.36,1.38-4.84
	c0.81-1.77,2.15-3.31,3.83-4.4c1.51-1,3.28-1.54,5.1-1.56h12.62l-1.01-4.21h-11.57c-3.19,0.23-5.63,0.91-7.19,2.01
	c-1.38,0.91-2.58,2.01-3.6,3.27c-0.65,0.84-1.24,1.77-1.74,2.73c-1.2,2.19-1.87,4.64-1.95,7.11c0.09,2.38,0.76,4.82,1.92,6.98
	c0.19,0.38,0.37,0.72,0.57,1.05c1.17,2,2.84,3.7,4.82,4.9c1.85,1.1,3.83,1.99,5.9,2.63c0.7,0.22,1.39,0.4,2.09,0.58
	c1.6,0.42,3.26,0.85,4.81,1.74c0.5,0.25,0.98,0.66,1.34,1.16l0.09,0.15c0.54,1.13,0.4,2.45-0.35,3.44c-0.91,1.3-2.29,2.26-3.86,2.67
	c-1.16,0.32-2.37,0.51-3.59,0.56c-1.16,0.06-2.33,0.05-3.46,0.03c-0.3,0-0.6-0.01-0.89-0.01L223.13,63.43z"/>
<path id="Tracé_33" class="st1" d="M263.58,23.46l-0.06,12.55c0.07,2.23,0.32,4.44,0.74,6.63c0.32,1.29,1.25,2.35,2.48,2.84
	c0.6,0.27,1.22,0.49,1.86,0.65l-1.06,6.58c-1.45-0.34-2.85-0.87-4.16-1.58c-2.36-1.21-4.18-3.26-5.09-5.75
	c-0.99-3.01-1.34-6.2-1.03-9.35l-0.06-12.58H246.4l2.33-6.46h25.69v6.46L263.58,23.46z"/>
<path id="Tracé_34" class="st1" d="M311.73,20.48l-5.75-3.33c-0.4,2.8-0.84,5.36-1.32,7.74c-1.07-2.22-2.73-4.11-4.8-5.44
	c-4.12-2.94-9.64-2.94-13.76,0c-2.32,1.57-4.13,3.77-5.23,6.34c-1.24,2.7-1.88,5.63-1.88,8.6c-0.01,2.94,0.63,5.84,1.85,8.51
	c1.1,2.56,2.9,4.75,5.19,6.34c4.16,3.02,9.8,3.02,13.96,0c1.69-0.82,3.26-2.53,4.73-5.1c0.5,2.31,0.98,4.79,1.42,7.49l5.53-2.95
	c-0.79-4.73-1.85-9.41-3.16-14.02C309.85,29.99,310.93,25.26,311.73,20.48 M293,45.27c-1.43-0.03-2.8-0.54-3.9-1.44
	c-1.32-1.05-2.33-2.44-2.92-4.02c-1.39-3.5-1.39-7.4,0.02-10.9c0.59-1.59,1.61-2.98,2.93-4.02c1.1-0.89,2.46-1.38,3.87-1.41
	c3.57,0.26,6.62,4.01,9.14,11.24C299.71,41.84,296.66,45.36,293,45.27"/>
<path id="Tracé_35" class="st2" d="M57.22,0.18H7.09C3.18,0.19,0.01,3.36,0,7.27V57.4c0.01,3.91,3.18,7.07,7.09,7.09h50.13
	c3.91-0.01,7.07-3.18,7.08-7.09V7.27C64.29,3.36,61.13,0.19,57.22,0.18 M57.42,45.25l-5.01,2.67c-0.41-2.46-0.85-4.69-1.31-6.8
	c-0.94,1.93-2.42,3.54-4.26,4.63c-3.77,2.74-8.87,2.74-12.64,0c-0.85-0.5-1.62-1.13-2.29-1.85c1.27-1.98,1.91-5.32,2.2-7.5
	c0.06,0.27,0.14,0.54,0.23,0.8c0.53,1.43,1.44,2.7,2.64,3.65c0.99,0.82,2.24,1.28,3.53,1.31c2.39,0.07,4.49-1.59,6.31-4.95
	c1.53-2.88,1.54-6.33,0.02-9.22c-1.85-3.54-3.96-5.4-6.33-5.57c-1.77,0.11-3.43,0.89-4.64,2.18c-1.18,1.14-1.98,2.61-2.31,4.21
	c-0.22,1.15-0.32,2.31-0.31,3.48c0.01,0.42,0.01,0.85,0,1.26c-0.04,1.85-0.26,3.69-0.68,5.5c-0.27,1.48-0.81,2.9-1.59,4.19
	c-0.74,1.12-1.76,2.01-2.96,2.59c-4.29,2.75-9.8,2.75-14.09,0c-2.26-1.39-4.07-3.39-5.23-5.77c-1.23-2.4-1.87-5.06-1.87-7.75v-0.06
	c0-2.7,0.64-5.35,1.87-7.75c1.16-2.38,2.98-4.38,5.23-5.77c4.29-2.75,9.8-2.75,14.09,0c1.01,0.72,1.86,1.65,2.48,2.72
	c-1.39,1.72-2.42,3.71-3.03,5.83c-0.44-1.38-1.24-2.62-2.31-3.6c-2.54-1.77-5.91-1.77-8.46-0.02c-1.38,0.9-2.47,2.17-3.15,3.67
	c-1.49,3.13-1.49,6.77,0,9.9c0.68,1.5,1.78,2.77,3.15,3.67c1.25,0.84,2.71,1.3,4.22,1.31c1.53,0.08,3.03-0.39,4.24-1.33
	c0.24-0.16,0.46-0.34,0.67-0.54c0.97-0.9,1.64-2.06,1.93-3.34c0.22-1.35,0.28-2.72,0.2-4.08c-0.01-1.84,0.21-3.67,0.66-5.44
	c0.87-3.33,2.71-6.76,5.64-8.69c3.73-2.66,8.73-2.66,12.46,0c1.87,1.22,3.37,2.93,4.33,4.94c0.43-2.17,0.84-4.47,1.21-7.02l5.2,3.01
	c-0.73,4.33-1.72,8.62-2.94,12.84C55.73,36.74,56.69,40.97,57.42,45.25"/>
</svg>
