<?xml version="1.0" encoding="utf-8"?>
<!-- Generator: Adobe Illustrator 27.1.1, SVG Export Plug-In . SVG Version: 6.00 Build 0)  -->
<svg version="1.1" id="Calque_1" xmlns="http://www.w3.org/2000/svg" xmlns:xlink="http://www.w3.org/1999/xlink" x="0px" y="0px"
	 viewBox="0 0 28.3 28.3" style="enable-background:new 0 0 28.3 28.3;" xml:space="preserve">
<style type="text/css">
	.st0{fill:#EE7429;}
</style>
<path id="Tracé_35" class="st0" d="M25.2,0H3.1C1.4,0,0,1.4,0,3.1v22.1c0,1.7,1.4,3.1,3.1,3.1h22.1c1.7,0,3.1-1.4,3.1-3.1V3.1
	C28.3,1.4,26.9,0,25.2,0 M25.3,19.9L23.1,21c-0.2-1.1-0.4-2.1-0.6-3c-0.4,0.9-1.1,1.6-1.9,2c-1.7,1.2-3.9,1.2-5.6,0
	c-0.4-0.2-0.7-0.5-1-0.8c0.6-0.9,0.8-2.3,1-3.3c0,0.1,0.1,0.2,0.1,0.4c0.2,0.6,0.6,1.2,1.2,1.6c0.4,0.4,1,0.6,1.6,0.6
	c1.1,0,2-0.7,2.8-2.2c0.7-1.3,0.7-2.8,0-4.1c-0.8-1.6-1.7-2.4-2.8-2.5c-0.8,0-1.5,0.4-2,1c-0.5,0.5-0.9,1.2-1,1.9
	c-0.1,0.5-0.1,1-0.1,1.5c0,0.2,0,0.4,0,0.6c0,0.8-0.1,1.6-0.3,2.4c-0.1,0.7-0.4,1.3-0.7,1.8c-0.3,0.5-0.8,0.9-1.3,1.1
	c-1.9,1.2-4.3,1.2-6.2,0c-1-0.6-1.8-1.5-2.3-2.5C3.3,16.5,3,15.4,3,14.2v0c0-1.2,0.3-2.4,0.8-3.4c0.5-1,1.3-1.9,2.3-2.5
	C8,7,10.5,7,12.4,8.2c0.4,0.3,0.8,0.7,1.1,1.2c-0.6,0.8-1.1,1.6-1.3,2.6c-0.2-0.6-0.5-1.2-1-1.6c-1.1-0.8-2.6-0.8-3.7,0
	c-0.6,0.4-1.1,1-1.4,1.6c-0.7,1.4-0.7,3,0,4.4C6.3,17,6.8,17.6,7.4,18c0.6,0.4,1.2,0.6,1.9,0.6c0.7,0,1.3-0.2,1.9-0.6
	c0.1-0.1,0.2-0.1,0.3-0.2c0.4-0.4,0.7-0.9,0.9-1.5c0.1-0.6,0.1-1.2,0.1-1.8c0-0.8,0.1-1.6,0.3-2.4c0.4-1.5,1.2-3,2.5-3.8
	C16.7,7,19,7,20.6,8.2c0.8,0.5,1.5,1.3,1.9,2.2c0.2-1,0.4-2,0.5-3.1l2.3,1.3c-0.3,1.9-0.8,3.8-1.3,5.7C24.6,16.1,25,18,25.3,19.9"/>
</svg>
